<mxfile host="app.diagrams.net" modified="2023-04-13T22:35:41.035Z" agent="Mozilla/5.0 (Windows NT 10.0; Win64; x64) AppleWebKit/537.36 (KHTML, like Gecko) Chrome/111.0.0.0 Safari/537.36 OPR/97.0.0.0" etag="rngExYpUpfJ5af0-opps" version="21.1.7" type="github">
  <diagram name="Página-1" id="IS6-HMt93yPjyvo3iPI_">
    <mxGraphModel dx="794" dy="432" grid="1" gridSize="10" guides="1" tooltips="1" connect="1" arrows="1" fold="1" page="1" pageScale="1" pageWidth="827" pageHeight="1169" math="0" shadow="0">
      <root>
        <mxCell id="0" />
        <mxCell id="1" parent="0" />
        <mxCell id="z8P6iUuIO06SuJC8BE_h-36" value="Cliente" style="whiteSpace=wrap;html=1;align=center;" parent="1" vertex="1">
          <mxGeometry x="120" y="685" width="100" height="40" as="geometry" />
        </mxCell>
        <mxCell id="z8P6iUuIO06SuJC8BE_h-37" value="Editora" style="whiteSpace=wrap;html=1;align=center;" parent="1" vertex="1">
          <mxGeometry x="304" y="885" width="100" height="40" as="geometry" />
        </mxCell>
        <mxCell id="z8P6iUuIO06SuJC8BE_h-38" value="Livro" style="shape=ext;margin=3;double=1;whiteSpace=wrap;html=1;align=center;" parent="1" vertex="1">
          <mxGeometry x="304" y="685" width="100" height="40" as="geometry" />
        </mxCell>
        <mxCell id="z8P6iUuIO06SuJC8BE_h-39" value="Pedido" style="shape=ext;margin=3;double=1;whiteSpace=wrap;html=1;align=center;" parent="1" vertex="1">
          <mxGeometry x="304" y="520" width="100" height="40" as="geometry" />
        </mxCell>
        <mxCell id="z8P6iUuIO06SuJC8BE_h-40" value="Estoque" style="shape=ext;margin=3;double=1;whiteSpace=wrap;html=1;align=center;" parent="1" vertex="1">
          <mxGeometry x="600" y="685" width="100" height="40" as="geometry" />
        </mxCell>
        <mxCell id="z8P6iUuIO06SuJC8BE_h-41" value="Faz" style="shape=rhombus;perimeter=rhombusPerimeter;whiteSpace=wrap;html=1;align=center;" parent="1" vertex="1">
          <mxGeometry x="110" y="510" width="120" height="60" as="geometry" />
        </mxCell>
        <mxCell id="z8P6iUuIO06SuJC8BE_h-57" value="" style="endArrow=none;html=1;rounded=0;exitX=1;exitY=0.5;exitDx=0;exitDy=0;entryX=0;entryY=0.5;entryDx=0;entryDy=0;" parent="1" source="z8P6iUuIO06SuJC8BE_h-41" target="z8P6iUuIO06SuJC8BE_h-39" edge="1">
          <mxGeometry relative="1" as="geometry">
            <mxPoint x="200" y="595" as="sourcePoint" />
            <mxPoint x="360" y="595" as="targetPoint" />
          </mxGeometry>
        </mxCell>
        <mxCell id="z8P6iUuIO06SuJC8BE_h-58" value="" style="endArrow=none;html=1;rounded=0;exitX=0.5;exitY=0;exitDx=0;exitDy=0;entryX=0.5;entryY=1;entryDx=0;entryDy=0;" parent="1" source="z8P6iUuIO06SuJC8BE_h-36" target="z8P6iUuIO06SuJC8BE_h-41" edge="1">
          <mxGeometry relative="1" as="geometry">
            <mxPoint x="250" y="625" as="sourcePoint" />
            <mxPoint x="410" y="625" as="targetPoint" />
          </mxGeometry>
        </mxCell>
        <mxCell id="z8P6iUuIO06SuJC8BE_h-59" value="Contém" style="shape=rhombus;perimeter=rhombusPerimeter;whiteSpace=wrap;html=1;align=center;" parent="1" vertex="1">
          <mxGeometry x="294" y="585" width="120" height="60" as="geometry" />
        </mxCell>
        <mxCell id="z8P6iUuIO06SuJC8BE_h-60" value="" style="endArrow=none;html=1;rounded=0;exitX=0.5;exitY=1;exitDx=0;exitDy=0;entryX=0.5;entryY=0;entryDx=0;entryDy=0;" parent="1" source="z8P6iUuIO06SuJC8BE_h-39" target="z8P6iUuIO06SuJC8BE_h-59" edge="1">
          <mxGeometry relative="1" as="geometry">
            <mxPoint x="430" y="565" as="sourcePoint" />
            <mxPoint x="590" y="565" as="targetPoint" />
          </mxGeometry>
        </mxCell>
        <mxCell id="z8P6iUuIO06SuJC8BE_h-61" value="" style="endArrow=none;html=1;rounded=0;exitX=0.5;exitY=1;exitDx=0;exitDy=0;entryX=0.5;entryY=0;entryDx=0;entryDy=0;" parent="1" source="z8P6iUuIO06SuJC8BE_h-59" target="z8P6iUuIO06SuJC8BE_h-38" edge="1">
          <mxGeometry relative="1" as="geometry">
            <mxPoint x="460" y="605" as="sourcePoint" />
            <mxPoint x="620" y="605" as="targetPoint" />
          </mxGeometry>
        </mxCell>
        <mxCell id="z8P6iUuIO06SuJC8BE_h-64" value="&lt;font style=&quot;font-size: 10px;&quot;&gt;(1,1)&lt;/font&gt;" style="text;strokeColor=none;fillColor=none;spacingLeft=4;spacingRight=4;overflow=hidden;rotatable=0;points=[[0,0.5],[1,0.5]];portConstraint=eastwest;fontSize=12;whiteSpace=wrap;html=1;imageAlign=center;verticalAlign=middle;align=center;" parent="1" vertex="1">
          <mxGeometry x="170" y="665" width="30" height="20" as="geometry" />
        </mxCell>
        <mxCell id="z8P6iUuIO06SuJC8BE_h-65" value="&lt;font style=&quot;font-size: 10px;&quot;&gt;(0,n)&lt;/font&gt;" style="text;strokeColor=none;fillColor=none;spacingLeft=4;spacingRight=4;overflow=hidden;rotatable=0;points=[[0,0.5],[1,0.5]];portConstraint=eastwest;fontSize=12;whiteSpace=wrap;html=1;imageAlign=center;verticalAlign=middle;align=center;" parent="1" vertex="1">
          <mxGeometry x="274" y="520" width="30" height="20" as="geometry" />
        </mxCell>
        <mxCell id="z8P6iUuIO06SuJC8BE_h-66" value="&lt;font style=&quot;font-size: 10px;&quot;&gt;(1,n)&lt;/font&gt;" style="text;strokeColor=none;fillColor=none;spacingLeft=4;spacingRight=4;overflow=hidden;rotatable=0;points=[[0,0.5],[1,0.5]];portConstraint=eastwest;fontSize=12;whiteSpace=wrap;html=1;imageAlign=center;verticalAlign=middle;align=center;" parent="1" vertex="1">
          <mxGeometry x="320" y="560" width="30" height="20" as="geometry" />
        </mxCell>
        <mxCell id="z8P6iUuIO06SuJC8BE_h-68" value="Publicou" style="shape=rhombus;perimeter=rhombusPerimeter;whiteSpace=wrap;html=1;align=center;" parent="1" vertex="1">
          <mxGeometry x="294" y="780" width="120" height="60" as="geometry" />
        </mxCell>
        <mxCell id="z8P6iUuIO06SuJC8BE_h-69" value="Existe no" style="shape=rhombus;perimeter=rhombusPerimeter;whiteSpace=wrap;html=1;align=center;" parent="1" vertex="1">
          <mxGeometry x="440" y="675" width="120" height="60" as="geometry" />
        </mxCell>
        <mxCell id="z8P6iUuIO06SuJC8BE_h-70" value="" style="endArrow=none;html=1;rounded=0;exitX=1;exitY=0.5;exitDx=0;exitDy=0;entryX=0;entryY=0.5;entryDx=0;entryDy=0;" parent="1" source="z8P6iUuIO06SuJC8BE_h-38" target="z8P6iUuIO06SuJC8BE_h-69" edge="1">
          <mxGeometry relative="1" as="geometry">
            <mxPoint x="460" y="755" as="sourcePoint" />
            <mxPoint x="620" y="755" as="targetPoint" />
          </mxGeometry>
        </mxCell>
        <mxCell id="z8P6iUuIO06SuJC8BE_h-71" value="" style="endArrow=none;html=1;rounded=0;exitX=1;exitY=0.5;exitDx=0;exitDy=0;entryX=0;entryY=0.5;entryDx=0;entryDy=0;" parent="1" source="z8P6iUuIO06SuJC8BE_h-69" target="z8P6iUuIO06SuJC8BE_h-40" edge="1">
          <mxGeometry relative="1" as="geometry">
            <mxPoint x="460" y="750" as="sourcePoint" />
            <mxPoint x="620" y="750" as="targetPoint" />
          </mxGeometry>
        </mxCell>
        <mxCell id="z8P6iUuIO06SuJC8BE_h-72" value="" style="endArrow=none;html=1;rounded=0;exitX=0.5;exitY=1;exitDx=0;exitDy=0;entryX=0.5;entryY=0;entryDx=0;entryDy=0;" parent="1" source="z8P6iUuIO06SuJC8BE_h-38" target="z8P6iUuIO06SuJC8BE_h-68" edge="1">
          <mxGeometry relative="1" as="geometry">
            <mxPoint x="420" y="735" as="sourcePoint" />
            <mxPoint x="580" y="735" as="targetPoint" />
          </mxGeometry>
        </mxCell>
        <mxCell id="z8P6iUuIO06SuJC8BE_h-73" value="" style="endArrow=none;html=1;rounded=0;exitX=0.5;exitY=1;exitDx=0;exitDy=0;entryX=0.5;entryY=0;entryDx=0;entryDy=0;" parent="1" source="z8P6iUuIO06SuJC8BE_h-68" target="z8P6iUuIO06SuJC8BE_h-37" edge="1">
          <mxGeometry relative="1" as="geometry">
            <mxPoint x="360" y="825" as="sourcePoint" />
            <mxPoint x="510" y="815" as="targetPoint" />
          </mxGeometry>
        </mxCell>
        <mxCell id="z8P6iUuIO06SuJC8BE_h-74" value="&lt;font style=&quot;font-size: 10px;&quot;&gt;(1,n)&lt;/font&gt;" style="text;strokeColor=none;fillColor=none;spacingLeft=4;spacingRight=4;overflow=hidden;rotatable=0;points=[[0,0.5],[1,0.5]];portConstraint=eastwest;fontSize=12;whiteSpace=wrap;html=1;imageAlign=center;verticalAlign=middle;align=center;" parent="1" vertex="1">
          <mxGeometry x="320" y="665" width="30" height="20" as="geometry" />
        </mxCell>
        <mxCell id="z8P6iUuIO06SuJC8BE_h-75" value="&lt;font style=&quot;font-size: 10px;&quot;&gt;(1,n)&lt;/font&gt;" style="text;strokeColor=none;fillColor=none;spacingLeft=4;spacingRight=4;overflow=hidden;rotatable=0;points=[[0,0.5],[1,0.5]];portConstraint=eastwest;fontSize=12;whiteSpace=wrap;html=1;imageAlign=center;verticalAlign=middle;align=center;" parent="1" vertex="1">
          <mxGeometry x="320" y="725" width="30" height="20" as="geometry" />
        </mxCell>
        <mxCell id="z8P6iUuIO06SuJC8BE_h-76" value="&lt;font style=&quot;font-size: 10px;&quot;&gt;(1,n)&lt;/font&gt;" style="text;strokeColor=none;fillColor=none;spacingLeft=4;spacingRight=4;overflow=hidden;rotatable=0;points=[[0,0.5],[1,0.5]];portConstraint=eastwest;fontSize=12;whiteSpace=wrap;html=1;imageAlign=center;verticalAlign=middle;align=center;" parent="1" vertex="1">
          <mxGeometry x="404" y="685" width="30" height="20" as="geometry" />
        </mxCell>
        <mxCell id="z8P6iUuIO06SuJC8BE_h-77" value="&lt;font style=&quot;font-size: 10px;&quot;&gt;(1,1)&lt;/font&gt;" style="text;strokeColor=none;fillColor=none;spacingLeft=4;spacingRight=4;overflow=hidden;rotatable=0;points=[[0,0.5],[1,0.5]];portConstraint=eastwest;fontSize=12;whiteSpace=wrap;html=1;imageAlign=center;verticalAlign=middle;align=center;" parent="1" vertex="1">
          <mxGeometry x="320" y="865" width="30" height="20" as="geometry" />
        </mxCell>
        <mxCell id="z8P6iUuIO06SuJC8BE_h-78" value="&lt;font style=&quot;font-size: 10px;&quot;&gt;(1,1)&lt;/font&gt;" style="text;strokeColor=none;fillColor=none;spacingLeft=4;spacingRight=4;overflow=hidden;rotatable=0;points=[[0,0.5],[1,0.5]];portConstraint=eastwest;fontSize=12;whiteSpace=wrap;html=1;imageAlign=center;verticalAlign=middle;align=center;" parent="1" vertex="1">
          <mxGeometry x="570" y="685" width="30" height="20" as="geometry" />
        </mxCell>
      </root>
    </mxGraphModel>
  </diagram>
</mxfile>
